<mxfile host="app.diagrams.net" modified="2024-05-29T19:13:53.000Z" agent="Mozilla/5.0 (Windows NT 10.0; Win64; x64) AppleWebKit/537.36 (KHTML, like Gecko) Chrome/125.0.0.0 Safari/537.36" etag="qI8xMtOoYgb0U61uKYW8" version="24.4.9" type="device">
  <diagram name="Page-1" id="ERNA13LC1aLBNSNh6Caj">
    <mxGraphModel dx="1129" dy="1768" grid="1" gridSize="10" guides="1" tooltips="1" connect="1" arrows="1" fold="1" page="1" pageScale="1" pageWidth="827" pageHeight="1169" math="0" shadow="0">
      <root>
        <mxCell id="0" />
        <mxCell id="1" parent="0" />
        <mxCell id="I8Z3cHtXDOIq324tbEqZ-14" style="edgeStyle=orthogonalEdgeStyle;rounded=0;orthogonalLoop=1;jettySize=auto;html=1;entryX=0;entryY=0.5;entryDx=0;entryDy=0;" edge="1" parent="1" source="I8Z3cHtXDOIq324tbEqZ-1" target="I8Z3cHtXDOIq324tbEqZ-11">
          <mxGeometry relative="1" as="geometry" />
        </mxCell>
        <mxCell id="I8Z3cHtXDOIq324tbEqZ-15" style="edgeStyle=orthogonalEdgeStyle;rounded=0;orthogonalLoop=1;jettySize=auto;html=1;entryX=0;entryY=0.5;entryDx=0;entryDy=0;" edge="1" parent="1" source="I8Z3cHtXDOIq324tbEqZ-1" target="I8Z3cHtXDOIq324tbEqZ-12">
          <mxGeometry relative="1" as="geometry" />
        </mxCell>
        <mxCell id="I8Z3cHtXDOIq324tbEqZ-1" value="Putnik" style="shape=umlActor;verticalLabelPosition=bottom;verticalAlign=top;html=1;strokeWidth=2;" vertex="1" parent="1">
          <mxGeometry x="50" y="50" width="30" height="60" as="geometry" />
        </mxCell>
        <mxCell id="I8Z3cHtXDOIq324tbEqZ-26" style="edgeStyle=orthogonalEdgeStyle;rounded=0;orthogonalLoop=1;jettySize=auto;html=1;entryX=0;entryY=0.5;entryDx=0;entryDy=0;" edge="1" parent="1" source="I8Z3cHtXDOIq324tbEqZ-2" target="I8Z3cHtXDOIq324tbEqZ-18">
          <mxGeometry relative="1" as="geometry" />
        </mxCell>
        <mxCell id="I8Z3cHtXDOIq324tbEqZ-29" style="edgeStyle=orthogonalEdgeStyle;rounded=0;orthogonalLoop=1;jettySize=auto;html=1;entryX=0;entryY=0.5;entryDx=0;entryDy=0;" edge="1" parent="1" source="I8Z3cHtXDOIq324tbEqZ-2" target="I8Z3cHtXDOIq324tbEqZ-21">
          <mxGeometry relative="1" as="geometry">
            <Array as="points">
              <mxPoint x="140" y="440" />
              <mxPoint x="140" y="515" />
            </Array>
          </mxGeometry>
        </mxCell>
        <mxCell id="I8Z3cHtXDOIq324tbEqZ-2" value="Administrator" style="shape=umlActor;verticalLabelPosition=bottom;verticalAlign=top;html=1;strokeWidth=2;" vertex="1" parent="1">
          <mxGeometry x="50" y="410" width="30" height="60" as="geometry" />
        </mxCell>
        <mxCell id="I8Z3cHtXDOIq324tbEqZ-25" style="edgeStyle=orthogonalEdgeStyle;rounded=0;orthogonalLoop=1;jettySize=auto;html=1;entryX=0;entryY=0.5;entryDx=0;entryDy=0;" edge="1" parent="1" source="I8Z3cHtXDOIq324tbEqZ-3" target="I8Z3cHtXDOIq324tbEqZ-16">
          <mxGeometry relative="1" as="geometry" />
        </mxCell>
        <mxCell id="I8Z3cHtXDOIq324tbEqZ-30" style="edgeStyle=orthogonalEdgeStyle;rounded=0;orthogonalLoop=1;jettySize=auto;html=1;entryX=0;entryY=0.5;entryDx=0;entryDy=0;" edge="1" parent="1" source="I8Z3cHtXDOIq324tbEqZ-3" target="I8Z3cHtXDOIq324tbEqZ-17">
          <mxGeometry relative="1" as="geometry" />
        </mxCell>
        <mxCell id="I8Z3cHtXDOIq324tbEqZ-3" value="Vozač" style="shape=umlActor;verticalLabelPosition=bottom;verticalAlign=top;html=1;strokeWidth=2;" vertex="1" parent="1">
          <mxGeometry x="50" y="210" width="30" height="60" as="geometry" />
        </mxCell>
        <mxCell id="I8Z3cHtXDOIq324tbEqZ-11" value="Pregled voznog reda" style="ellipse;whiteSpace=wrap;html=1;" vertex="1" parent="1">
          <mxGeometry x="180" y="-60" width="126" height="50" as="geometry" />
        </mxCell>
        <mxCell id="I8Z3cHtXDOIq324tbEqZ-12" value="Kupnja karata" style="ellipse;whiteSpace=wrap;html=1;" vertex="1" parent="1">
          <mxGeometry x="230" width="126" height="50" as="geometry" />
        </mxCell>
        <mxCell id="I8Z3cHtXDOIq324tbEqZ-16" value="Validacija karata" style="ellipse;whiteSpace=wrap;html=1;" vertex="1" parent="1">
          <mxGeometry x="180" y="140" width="126" height="50" as="geometry" />
        </mxCell>
        <mxCell id="I8Z3cHtXDOIq324tbEqZ-24" value="&amp;lt;&amp;lt;extend&amp;gt;&amp;gt;" style="edgeStyle=orthogonalEdgeStyle;rounded=0;orthogonalLoop=1;jettySize=auto;html=1;entryX=0;entryY=0.5;entryDx=0;entryDy=0;dashed=1;" edge="1" parent="1" source="I8Z3cHtXDOIq324tbEqZ-17" target="I8Z3cHtXDOIq324tbEqZ-22">
          <mxGeometry relative="1" as="geometry" />
        </mxCell>
        <mxCell id="I8Z3cHtXDOIq324tbEqZ-17" value="Pregled statusa vozila" style="ellipse;whiteSpace=wrap;html=1;" vertex="1" parent="1">
          <mxGeometry x="240" y="215" width="126" height="50" as="geometry" />
        </mxCell>
        <mxCell id="I8Z3cHtXDOIq324tbEqZ-18" value="Upravljanje voznim redom" style="ellipse;whiteSpace=wrap;html=1;" vertex="1" parent="1">
          <mxGeometry x="140" y="310" width="126" height="50" as="geometry" />
        </mxCell>
        <mxCell id="I8Z3cHtXDOIq324tbEqZ-19" value="Upravljanje vozačima" style="ellipse;whiteSpace=wrap;html=1;" vertex="1" parent="1">
          <mxGeometry x="200" y="370" width="126" height="50" as="geometry" />
        </mxCell>
        <mxCell id="I8Z3cHtXDOIq324tbEqZ-20" value="Upravljanje vozilima" style="ellipse;whiteSpace=wrap;html=1;" vertex="1" parent="1">
          <mxGeometry x="240" y="430" width="126" height="50" as="geometry" />
        </mxCell>
        <mxCell id="I8Z3cHtXDOIq324tbEqZ-23" value="&amp;lt;&amp;lt;extend&amp;gt;&amp;gt;" style="edgeStyle=orthogonalEdgeStyle;rounded=0;orthogonalLoop=1;jettySize=auto;html=1;entryX=0;entryY=0.5;entryDx=0;entryDy=0;dashed=1;" edge="1" parent="1" source="I8Z3cHtXDOIq324tbEqZ-21" target="I8Z3cHtXDOIq324tbEqZ-22">
          <mxGeometry relative="1" as="geometry">
            <mxPoint x="450" y="390" as="targetPoint" />
            <Array as="points">
              <mxPoint x="440" y="515" />
              <mxPoint x="440" y="355" />
            </Array>
          </mxGeometry>
        </mxCell>
        <mxCell id="I8Z3cHtXDOIq324tbEqZ-21" value="Pregled statusa vozila" style="ellipse;whiteSpace=wrap;html=1;" vertex="1" parent="1">
          <mxGeometry x="300" y="490" width="126" height="50" as="geometry" />
        </mxCell>
        <mxCell id="I8Z3cHtXDOIq324tbEqZ-22" value="Obavijesti o kašnjenjima" style="ellipse;whiteSpace=wrap;html=1;" vertex="1" parent="1">
          <mxGeometry x="460" y="330" width="126" height="50" as="geometry" />
        </mxCell>
        <mxCell id="I8Z3cHtXDOIq324tbEqZ-27" style="edgeStyle=orthogonalEdgeStyle;rounded=0;orthogonalLoop=1;jettySize=auto;html=1;entryX=0.003;entryY=0.648;entryDx=0;entryDy=0;entryPerimeter=0;" edge="1" parent="1" source="I8Z3cHtXDOIq324tbEqZ-2" target="I8Z3cHtXDOIq324tbEqZ-19">
          <mxGeometry relative="1" as="geometry" />
        </mxCell>
        <mxCell id="I8Z3cHtXDOIq324tbEqZ-28" style="edgeStyle=orthogonalEdgeStyle;rounded=0;orthogonalLoop=1;jettySize=auto;html=1;entryX=0.048;entryY=0.664;entryDx=0;entryDy=0;entryPerimeter=0;" edge="1" parent="1" source="I8Z3cHtXDOIq324tbEqZ-2" target="I8Z3cHtXDOIq324tbEqZ-20">
          <mxGeometry relative="1" as="geometry" />
        </mxCell>
      </root>
    </mxGraphModel>
  </diagram>
</mxfile>
